<?xml version="1.0" encoding="utf-8"?>
<!-- Generator: Adobe Illustrator 16.0.0, SVG Export Plug-In . SVG Version: 6.00 Build 0)  -->
<!DOCTYPE svg PUBLIC "-//W3C//DTD SVG 1.1//EN" "http://www.w3.org/Graphics/SVG/1.1/DTD/svg11.dtd">
<svg version="1.1" xmlns="http://www.w3.org/2000/svg" xmlns:xlink="http://www.w3.org/1999/xlink" x="0px" y="0px" width="1228px"
	 height="512px" viewBox="-689.934 0 1228 512" enable-background="new -689.934 0 1228 512" xml:space="preserve">
<g id="Layer_5">
	<g>
		<path fill-rule="evenodd" clip-rule="evenodd" fill="#FFFFFF" d="M-689.454,482.72c0.145-0.683,0.408-1.364,0.417-2.048
			c0.198-15.593,0.374-31.186,0.541-46.778c0.049-4.559,0.149-9.12,0.035-13.676c-0.042-1.657,0.625-2.402,1.977-3.094
			c11.111-5.68,22.477-10.797,34.019-15.528c32.402-13.281,65.742-23.505,100.049-30.534c14.727-3.017,29.565-5.336,44.51-7.018
			c20.062-2.257,40.177-3.179,60.35-2.655c13.194,0.343,26.342,1.392,39.441,3.083c10.068,1.3,20.16,2.419,30.248,3.562
			c11.042,1.25,22.086,2.472,33.136,3.638c8.667,0.915,17.342,1.743,26.016,2.58c9.47,0.914,18.942,1.817,28.417,2.683
			c8.042,0.734,16.088,1.421,24.135,2.104c10.755,0.915,21.511,1.823,32.269,2.702c8.767,0.716,17.537,1.391,26.306,2.071
			c9.806,0.762,19.611,1.519,29.418,2.262c9.249,0.7,18.5,1.374,27.75,2.07c9.887,0.745,19.773,1.502,29.659,2.256
			c9.089,0.692,18.181,1.358,27.267,2.091c10.759,0.868,21.515,1.774,32.269,2.702c7.567,0.653,15.135,1.315,22.692,2.068
			c10.262,1.022,20.523,2.056,30.768,3.234c9.051,1.042,18.102,2.14,27.11,3.49c9.876,1.48,19.697,3.33,29.557,4.921
			c6.231,1.005,12.498,1.789,18.738,2.744c12.877,1.97,25.77,3.854,38.614,6.019c15.838,2.671,31.664,5.435,47.442,8.435
			c44.924,8.543,89.533,18.417,133.21,32.143c16.407,5.156,32.396,11.41,48.276,17.999c27.049,11.221,54.684,20.749,83.128,27.826
			c13.661,3.398,27.452,6.124,41.441,7.789c1.417,0.169,2.824,0.411,4.236,0.62c-384.48,0-768.961,0-1153.441,0
			C-689.454,502.556-689.454,492.638-689.454,482.72z"/>
		<path fill-rule="evenodd" clip-rule="evenodd" fill="#FFFFFF" d="M481.747,245.12c-0.155,0.519-0.396,1.029-0.455,1.559
			c-0.901,8.023-7.144,15.55-14.813,17.823c-4.293,1.272-8.527,0.916-12.74-0.426c-11.965-3.813-23.103-9.336-33.58-16.223
			c-8.24-5.416-15.928-11.541-23.252-18.131c-0.698-0.628-1.415-1.236-2.487-1.637c0.524,2.209,1.032,4.423,1.575,6.628
			c2.753,11.184,4.985,22.469,6.394,33.905c0.46,3.728,0.676,7.484,1.061,11.223c0.121,1.179,0.286,2.389,0.673,3.5
			c19.518,56.167,37.598,112.806,55.496,169.503c1.54,4.877,3.049,9.764,4.605,14.635c1.213,3.797,1.64,7.684,1.055,11.608
			c-0.774,5.195-3.348,9.433-7.357,12.815c-11.209,9.452-29.75,8.386-39.769-2.301c-3.13-3.339-5.068-7.325-6.434-11.653
			c-6.875-21.795-13.694-43.608-20.698-65.362c-8.081-25.102-16.334-50.148-24.518-75.217c-0.267-0.813-0.602-1.605-0.969-2.577
			c-18.016,9.711-34.16,21.601-49.29,35.173c2.299,0.028,3.177,1.503,3.841,3.183c0.441,1.113,0.898,2.234,1.186,3.392
			c1.013,4.074,2.847,7.765,4.861,11.429c5.97,10.856,11.82,21.778,17.659,32.706c1.66,3.107,2.972,6.373,3.531,9.894
			c1.324,8.323-1.038,15.562-6.755,21.613c-6.375,6.75-14.238,10.185-23.634,9.526c-6.967-0.488-12.451-3.767-16.576-9.34
			c-0.9-1.216-1.687-2.53-2.402-3.866c-5.549-10.356-11.043-20.743-16.604-31.094c-4.353-8.103-8.632-16.237-11.964-24.828
			c-2.99-7.709-5.232-15.591-5.708-23.918c-0.661-11.604,2.492-22.017,9.78-31.043c2.647-3.28,5.646-6.344,8.82-9.12
			c12.605-11.023,26.052-20.936,40.29-29.762c0.54-0.335,1.065-0.695,1.685-1.101c-0.147-2.288-0.343-4.584-0.433-6.884
			c-0.181-4.633-0.244-9.271-0.467-13.902c-0.285-5.96-2.447-18.563-4.113-24.387c-0.709,0.391-1.377,0.727-2.013,1.115
			c-8.898,5.431-18.427,9.208-28.735,10.92c-7.384,1.227-14.786,1.472-22.209,0.347c-0.382-0.058-0.775-0.045-1.384-0.076
			c-0.685,3.479-1.371,6.908-2.032,10.342c-3.91,20.324-7.811,40.649-11.721,60.975c-3.623,18.832-7.255,37.664-10.88,56.497
			c-2.417,12.555-4.824,25.112-7.245,37.666c-0.384,1.991-1.521,2.778-3.583,2.554c-2.773-0.303-4.695-2.217-7.12-3.512
			c0.626-3.37,1.205-6.582,1.821-9.787c5.404-28.093,10.812-56.185,16.225-84.276c4.717-24.482,9.434-48.964,14.178-73.44
			c0.289-1.489,0.256-2.647-0.894-3.921c-3.033-3.357-4.56-7.461-5.152-11.923c-0.073-0.547-0.148-1.093-0.26-1.921
			c-5.333-0.322-10.635-0.642-16.203-0.977c0.177-3.531,0.344-6.858,0.522-10.405c5.933-0.257,11.706,0.717,17.525,0.576
			c0.284-0.487,0.528-0.891,0.757-1.302c4.082-7.329,10.431-10.287,18.618-9.519c6.542,0.613,12.93,0.18,19.115-2.206
			c6.718-2.591,12.216-6.867,17.053-12.116c0.899-0.975,0.623-1.852,0.378-2.856c-1.498-6.131-3.097-12.24-4.455-18.401
			c-1.815-8.242-1.494-16.386,1.941-24.213c4.31-9.821,11.791-16.417,21.578-20.396c11.037-4.488,22.229-4.96,33.398-0.383
			c6.634,2.718,11.868,7.179,15.707,13.233c0.745,1.177,1.619,2.109,2.789,2.881c9.104,6.009,17.365,13.08,25.525,20.285
			c9.231,8.152,18.38,16.407,27.831,24.299c9.369,7.823,19.635,14.321,31.039,18.859c2.375,0.944,4.813,1.729,7.219,2.594
			c5.197,1.87,9.219,5.101,11.481,10.227c0.603,1.365,0.819,2.899,1.23,4.351c0.124,0.438,0.306,0.86,0.461,1.29
			C481.747,241.6,481.747,243.36,481.747,245.12z"/>
		<path fill-rule="evenodd" clip-rule="evenodd" fill="#FFFFFF" d="M292.627,32c1.63,0.321,3.267,0.615,4.89,0.968
			c14.278,3.107,24.84,10.908,30.81,24.471c0.514,1.166,0.878,2.399,1.283,3.61c0.146,0.438,0.213,0.904,0.366,1.577
			c-28.379,7.356-56.663,14.688-85.155,22.074c-0.223-0.599-0.509-1.145-0.628-1.725c-2.171-10.62-0.27-20.551,5.513-29.631
			c7.629-11.982,18.782-18.63,32.708-20.83c0.694-0.109,1.369-0.339,2.053-0.514C287.187,32,289.907,32,292.627,32z"/>
		<path fill-rule="evenodd" clip-rule="evenodd" fill="#FFFFFF" d="M336.867,88.088c6.047,22.257-7.123,47.714-32.622,53.279
			c-26.04,5.684-47.239-12.677-51.117-31.541C280.99,102.594,308.864,95.358,336.867,88.088z"/>
		<path fill-rule="evenodd" clip-rule="evenodd" fill="#FFFFFF" d="M219.399,110.635c0.744-0.652,1.317-1.19,1.927-1.684
			c7.393-5.984,14.774-11.985,22.211-17.914c0.96-0.766,2.167-1.37,3.355-1.68c28.439-7.4,56.888-14.757,85.346-22.083
			c1.047-0.269,2.241-0.369,3.29-0.163c9.404,1.845,18.79,3.776,28.181,5.687c0.23,0.047,0.448,0.149,0.752,0.252
			c0.324,1.262-0.518,1.94-1.395,2.44c-0.818,0.466-1.754,0.771-2.674,1.009c-45.223,11.706-90.45,23.4-135.68,35.08
			C222.967,112.031,221.135,112.648,219.399,110.635z"/>
	</g>
</g>
<g id="Layer_4">
	<g>
		<path fill="#FFFFFF" d="M-525.138,172.182h-20.679v-48.225h-51.735v48.225h-20.679V61.844h20.679v47.462h51.735V61.844h20.679
			V172.182z"/>
		<path fill="#FFFFFF" d="M-470.503,92.672c5.849,0,11.152,0.942,15.91,2.823c4.756,1.883,8.813,4.554,12.17,8.012
			c3.357,3.46,5.952,7.682,7.783,12.667c1.832,4.986,2.747,10.557,2.747,16.711c0,6.207-0.916,11.802-2.747,16.787
			c-1.831,4.986-4.426,9.233-7.783,12.743s-7.415,6.207-12.17,8.088c-4.757,1.881-10.061,2.823-15.91,2.823
			c-5.851,0-11.167-0.942-15.948-2.823c-4.782-1.881-8.865-4.578-12.247-8.088c-3.384-3.51-6.003-7.757-7.859-12.743
			c-1.858-4.985-2.785-10.58-2.785-16.787c0-6.154,0.927-11.725,2.785-16.711c1.856-4.985,4.476-9.207,7.859-12.667
			c3.382-3.458,7.465-6.129,12.247-8.012C-481.67,93.614-476.354,92.672-470.503,92.672z M-470.503,158.828
			c6.511,0,11.331-2.187,14.46-6.562c3.128-4.375,4.692-10.784,4.692-19.229c0-8.444-1.564-14.879-4.692-19.305
			c-3.129-4.426-7.949-6.639-14.46-6.639c-6.614,0-11.497,2.226-14.651,6.677c-3.155,4.452-4.731,10.874-4.731,19.267
			s1.576,14.791,4.731,19.191C-482,156.629-477.117,158.828-470.503,158.828z"/>
		<path fill="#FFFFFF" d="M-360.548,101.676c0,1.323-0.242,2.607-0.725,3.853c-0.484,1.247-1.056,2.302-1.717,3.167l-37.237,48.988
			h38.61v14.498h-60.51v-7.859c0-0.864,0.203-1.895,0.61-3.09c0.407-1.195,1.042-2.328,1.908-3.396l37.542-49.522h-37.848V93.893
			h59.366V101.676z M-377.03,70.772c0,1.628-0.332,3.167-0.992,4.616c-0.662,1.45-1.539,2.709-2.632,3.777
			c-1.095,1.068-2.392,1.921-3.892,2.556c-1.501,0.637-3.09,0.954-4.769,0.954c-1.629,0-3.155-0.317-4.579-0.954
			c-1.425-0.635-2.67-1.488-3.739-2.556s-1.921-2.327-2.556-3.777c-0.637-1.45-0.954-2.988-0.954-4.616
			c0-1.679,0.317-3.243,0.954-4.693c0.635-1.45,1.488-2.721,2.556-3.815c1.068-1.093,2.314-1.958,3.739-2.594
			c1.424-0.635,2.95-0.954,4.579-0.954c1.679,0,3.268,0.318,4.769,0.954c1.5,0.637,2.797,1.501,3.892,2.594
			c1.093,1.095,1.971,2.366,2.632,3.815C-377.361,67.529-377.03,69.094-377.03,70.772z"/>
		<path fill="#FFFFFF" d="M-317.741,193.7c-0.561,1.322-1.286,2.327-2.175,3.014c-0.891,0.687-2.251,1.03-4.083,1.03h-14.04
			l14.65-31.362l-31.667-72.49h16.482c1.526,0,2.696,0.356,3.51,1.068c0.813,0.713,1.423,1.526,1.831,2.442l16.711,40.595
			c0.559,1.323,1.042,2.697,1.45,4.12c0.407,1.425,0.763,2.85,1.068,4.273c0.407-1.475,0.851-2.9,1.335-4.273
			c0.483-1.374,1.004-2.772,1.564-4.197l15.719-40.518c0.406-1.017,1.08-1.856,2.022-2.518c0.94-0.661,1.996-0.992,3.167-0.992
			h15.108L-317.741,193.7z"/>
	</g>
	<g>
		<path fill="#FFFFFF" d="M-442.564,238.206c-0.401,0.802-0.866,1.366-1.393,1.694c-0.528,0.328-1.157,0.492-1.885,0.492
			c-0.729,0-1.548-0.282-2.458-0.847c-0.911-0.564-1.985-1.192-3.223-1.884c-1.238-0.691-2.686-1.32-4.343-1.885
			c-1.658-0.564-3.615-0.847-5.873-0.847c-2.04,0-3.815,0.246-5.326,0.738c-1.512,0.492-2.786,1.174-3.824,2.048
			c-1.038,0.874-1.812,1.921-2.322,3.142c-0.51,1.22-0.765,2.559-0.765,4.015c0,1.857,0.519,3.406,1.557,4.644
			c1.038,1.238,2.412,2.294,4.125,3.168c1.711,0.874,3.66,1.658,5.845,2.349c2.185,0.692,4.416,1.43,6.692,2.212
			c2.276,0.784,4.507,1.693,6.692,2.732c2.185,1.037,4.133,2.349,5.845,3.934c1.711,1.584,3.086,3.523,4.125,5.817
			s1.557,5.08,1.557,8.358c0,3.569-0.61,6.91-1.83,10.024c-1.221,3.114-3.005,5.827-5.354,8.14
			c-2.349,2.313-5.217,4.134-8.604,5.463s-7.266,1.994-11.636,1.994c-2.513,0-4.99-0.246-7.429-0.737
			c-2.44-0.492-4.78-1.192-7.02-2.104c-2.24-0.91-4.334-2.002-6.283-3.277c-1.949-1.274-3.688-2.695-5.217-4.262l4.261-7.047
			c0.4-0.51,0.883-0.938,1.448-1.284c0.564-0.346,1.192-0.519,1.885-0.519c0.91,0,1.894,0.374,2.95,1.12
			c1.056,0.747,2.303,1.575,3.742,2.485c1.438,0.911,3.132,1.739,5.081,2.485c1.948,0.747,4.288,1.12,7.02,1.12
			c4.188,0,7.43-0.992,9.724-2.978c2.294-1.984,3.442-4.834,3.442-8.549c0-2.076-0.519-3.77-1.557-5.081
			c-1.038-1.311-2.413-2.412-4.125-3.306c-1.712-0.891-3.66-1.646-5.845-2.267c-2.185-0.618-4.407-1.292-6.665-2.021
			c-2.258-0.729-4.479-1.604-6.665-2.623s-4.134-2.349-5.845-3.988c-1.712-1.639-3.087-3.688-4.125-6.146
			c-1.038-2.458-1.557-5.49-1.557-9.096c0-2.876,0.574-5.681,1.721-8.413c1.147-2.731,2.822-5.153,5.026-7.266
			c2.203-2.112,4.907-3.805,8.113-5.081c3.204-1.274,6.864-1.912,10.98-1.912c4.661,0,8.959,0.729,12.893,2.186
			c3.933,1.457,7.284,3.496,10.052,6.118L-442.564,238.206z"/>
		<path fill="#FFFFFF" d="M-403.887,245.909c3.532,0,6.783,0.565,9.751,1.693c2.968,1.129,5.526,2.777,7.675,4.944
			c2.148,2.167,3.824,4.827,5.026,7.976c1.202,3.15,1.803,6.747,1.803,10.789c0,1.021-0.046,1.867-0.136,2.54
			c-0.091,0.675-0.255,1.202-0.492,1.585c-0.237,0.382-0.556,0.655-0.956,0.819c-0.401,0.164-0.911,0.246-1.53,0.246h-34.635
			c0.4,5.755,1.948,9.979,4.644,12.674c2.695,2.695,6.264,4.042,10.708,4.042c2.185,0,4.07-0.254,5.654-0.765
			c1.584-0.51,2.968-1.073,4.152-1.693c1.183-0.619,2.221-1.183,3.114-1.693c0.892-0.51,1.757-0.765,2.595-0.765
			c0.546,0,1.02,0.109,1.42,0.327c0.4,0.219,0.746,0.528,1.038,0.929l3.933,4.917c-1.494,1.748-3.168,3.215-5.026,4.397
			c-1.857,1.185-3.796,2.131-5.818,2.841s-4.079,1.211-6.173,1.503c-2.095,0.291-4.125,0.437-6.091,0.437
			c-3.897,0-7.521-0.646-10.872-1.939c-3.351-1.292-6.264-3.204-8.741-5.736c-2.477-2.53-4.425-5.662-5.845-9.396
			s-2.13-8.059-2.13-12.975c0-3.824,0.619-7.421,1.857-10.79c1.238-3.367,3.013-6.3,5.327-8.795c2.313-2.494,5.135-4.47,8.468-5.927
			C-411.836,246.638-408.076,245.909-403.887,245.909z M-403.614,255.579c-3.933,0-7.011,1.111-9.232,3.332
			c-2.222,2.223-3.643,5.373-4.261,9.451h25.348c0-1.748-0.237-3.395-0.71-4.943c-0.474-1.548-1.202-2.904-2.185-4.07
			c-0.983-1.165-2.222-2.084-3.715-2.759C-399.863,255.916-401.611,255.579-403.614,255.579z"/>
		<path fill="#FFFFFF" d="M-368.653,302.833v-56.05h8.249c1.749,0,2.896,0.819,3.442,2.458l0.929,4.425
			c1.128-1.165,2.322-2.221,3.578-3.168c1.256-0.947,2.585-1.766,3.988-2.458c1.401-0.691,2.904-1.22,4.507-1.584
			c1.602-0.363,3.35-0.546,5.244-0.546c3.06,0,5.772,0.519,8.14,1.557c2.367,1.038,4.343,2.495,5.927,4.371
			c1.584,1.876,2.786,4.116,3.605,6.719c0.819,2.604,1.229,5.473,1.229,8.604v35.673h-13.493V267.16
			c0-3.424-0.792-6.072-2.376-7.949c-1.584-1.875-3.961-2.813-7.129-2.813c-2.331,0-4.516,0.528-6.556,1.584
			c-2.04,1.057-3.97,2.494-5.791,4.315v40.535H-368.653z"/>
		<path fill="#FFFFFF" d="M-290.15,230.449c0,1.166-0.237,2.259-0.71,3.278c-0.474,1.02-1.102,1.912-1.885,2.677
			c-0.783,0.765-1.703,1.375-2.759,1.83c-1.057,0.456-2.185,0.683-3.387,0.683c-1.166,0-2.267-0.227-3.305-0.683
			c-1.038-0.455-1.939-1.065-2.704-1.83c-0.765-0.765-1.375-1.657-1.83-2.677c-0.456-1.019-0.683-2.112-0.683-3.278
			c0-1.202,0.227-2.33,0.683-3.387c0.455-1.056,1.065-1.967,1.83-2.732c0.765-0.765,1.666-1.374,2.704-1.83
			c1.038-0.455,2.139-0.683,3.305-0.683c1.202,0,2.33,0.228,3.387,0.683c1.056,0.456,1.976,1.065,2.759,1.83
			c0.783,0.765,1.411,1.676,1.885,2.732C-290.387,228.119-290.15,229.247-290.15,230.449z M-292.171,246.783v56.05h-13.494v-56.05
			H-292.171z"/>
		<path fill="#FFFFFF" d="M-253.002,245.909c4.188,0,7.985,0.674,11.391,2.021c3.405,1.348,6.31,3.26,8.713,5.736
			c2.404,2.477,4.261,5.5,5.572,9.068c1.311,3.57,1.966,7.559,1.966,11.965c0,4.443-0.655,8.449-1.966,12.018
			c-1.312,3.57-3.168,6.61-5.572,9.124c-2.404,2.513-5.309,4.443-8.713,5.79c-3.406,1.348-7.203,2.021-11.391,2.021
			c-4.188,0-7.995-0.674-11.417-2.021c-3.424-1.347-6.346-3.277-8.768-5.79c-2.422-2.514-4.298-5.554-5.627-9.124
			c-1.33-3.568-1.994-7.574-1.994-12.018c0-4.406,0.664-8.395,1.994-11.965c1.329-3.568,3.205-6.591,5.627-9.068
			c2.422-2.477,5.344-4.388,8.768-5.736C-260.997,246.584-257.191,245.909-253.002,245.909z M-253.002,293.273
			c4.662,0,8.113-1.565,10.353-4.698c2.24-3.131,3.36-7.721,3.36-13.767c0-6.045-1.12-10.652-3.36-13.821
			c-2.24-3.168-5.691-4.752-10.353-4.752c-4.735,0-8.231,1.594-10.489,4.78c-2.258,3.188-3.387,7.785-3.387,13.794
			c0,6.01,1.128,10.59,3.387,13.74C-261.233,291.698-257.737,293.273-253.002,293.273z"/>
		<path fill="#FFFFFF" d="M-214.817,302.833v-56.05h7.921c1.384,0,2.349,0.255,2.896,0.765c0.546,0.51,0.91,1.385,1.092,2.622
			l0.82,6.774c2.002-3.46,4.352-6.191,7.047-8.195c2.695-2.002,5.717-3.004,9.069-3.004c2.767,0,5.062,0.638,6.883,1.912
			l-1.748,10.106c-0.109,0.655-0.347,1.119-0.71,1.393c-0.364,0.273-0.856,0.41-1.475,0.41c-0.546,0-1.293-0.127-2.24-0.383
			c-0.947-0.254-2.204-0.382-3.77-0.382c-2.805,0-5.208,0.774-7.211,2.321c-2.003,1.549-3.697,3.816-5.081,6.802v34.908H-214.817z"
			/>
		<path fill="#FFFFFF" d="M-129.65,252.356c0,0.947-0.173,1.867-0.519,2.759c-0.346,0.893-0.756,1.647-1.229,2.267l-26.659,35.072
			h27.643v10.38h-43.321v-5.627c0-0.619,0.145-1.356,0.437-2.212c0.291-0.855,0.746-1.667,1.366-2.432l26.878-35.455h-27.096
			v-10.324h42.501V252.356z"/>
		<path fill="#FFFFFF" d="M-99.003,318.239c-0.401,0.947-0.92,1.666-1.557,2.158c-0.638,0.491-1.612,0.737-2.923,0.737h-10.052
			l10.489-22.452l-22.671-51.898h11.8c1.092,0,1.93,0.255,2.513,0.765c0.582,0.51,1.019,1.093,1.311,1.748l11.964,29.063
			c0.4,0.947,0.746,1.931,1.038,2.949c0.291,1.021,0.546,2.04,0.765,3.06c0.291-1.056,0.61-2.076,0.956-3.06
			c0.346-0.983,0.719-1.984,1.12-3.004l11.253-29.009c0.292-0.728,0.773-1.329,1.448-1.803c0.674-0.473,1.429-0.71,2.267-0.71
			h10.817L-99.003,318.239z"/>
	</g>
</g>
</svg>
