<?xml version="1.0" encoding="utf-8"?>
<!-- Generator: Adobe Illustrator 16.0.0, SVG Export Plug-In . SVG Version: 6.00 Build 0)  -->
<!DOCTYPE svg PUBLIC "-//W3C//DTD SVG 1.1//EN" "http://www.w3.org/Graphics/SVG/1.1/DTD/svg11.dtd">
<svg version="1.1" xmlns="http://www.w3.org/2000/svg" xmlns:xlink="http://www.w3.org/1999/xlink" x="0px" y="0px" width="1228px"
	 height="512px" viewBox="-689.934 0 1228 512" enable-background="new -689.934 0 1228 512" xml:space="preserve">
<g id="Layer_5">
	<g>
		<path fill-rule="evenodd" clip-rule="evenodd" d="M-689.454,482.72c0.145-0.683,0.408-1.364,0.417-2.048
			c0.198-15.593,0.374-31.186,0.541-46.778c0.049-4.559,0.149-9.12,0.035-13.676c-0.042-1.657,0.625-2.402,1.977-3.094
			c11.111-5.68,22.477-10.797,34.019-15.528c32.402-13.281,65.742-23.505,100.049-30.534c14.727-3.017,29.565-5.336,44.51-7.018
			c20.062-2.257,40.177-3.179,60.35-2.655c13.194,0.343,26.342,1.392,39.441,3.083c10.068,1.3,20.16,2.419,30.248,3.562
			c11.042,1.25,22.086,2.472,33.136,3.638c8.667,0.915,17.342,1.743,26.016,2.58c9.47,0.914,18.942,1.817,28.417,2.683
			c8.042,0.734,16.088,1.421,24.135,2.104c10.755,0.915,21.511,1.823,32.269,2.702c8.767,0.716,17.537,1.391,26.306,2.071
			c9.806,0.762,19.611,1.519,29.418,2.262c9.249,0.7,18.5,1.374,27.75,2.07c9.887,0.745,19.773,1.502,29.659,2.256
			c9.089,0.692,18.181,1.358,27.267,2.091c10.759,0.868,21.515,1.774,32.269,2.702c7.567,0.653,15.135,1.315,22.692,2.068
			c10.262,1.022,20.523,2.056,30.768,3.234c9.051,1.042,18.102,2.14,27.11,3.49c9.876,1.48,19.697,3.33,29.557,4.921
			c6.231,1.005,12.498,1.789,18.738,2.744c12.877,1.97,25.77,3.854,38.614,6.019c15.838,2.671,31.664,5.435,47.442,8.435
			c44.924,8.543,89.533,18.417,133.21,32.143c16.407,5.156,32.396,11.41,48.276,17.999c27.049,11.221,54.684,20.749,83.128,27.826
			c13.661,3.398,27.452,6.124,41.441,7.789c1.417,0.169,2.824,0.411,4.236,0.62c-384.48,0-768.961,0-1153.441,0
			C-689.454,502.556-689.454,492.638-689.454,482.72z"/>
		<path fill-rule="evenodd" clip-rule="evenodd" d="M481.747,245.12c-0.155,0.519-0.396,1.029-0.455,1.559
			c-0.901,8.023-7.144,15.55-14.813,17.823c-4.293,1.272-8.527,0.916-12.74-0.426c-11.965-3.813-23.103-9.336-33.58-16.223
			c-8.24-5.416-15.928-11.541-23.252-18.131c-0.698-0.628-1.415-1.236-2.487-1.637c0.524,2.209,1.032,4.423,1.575,6.628
			c2.753,11.184,4.985,22.469,6.394,33.905c0.46,3.728,0.676,7.484,1.061,11.223c0.121,1.179,0.286,2.389,0.673,3.5
			c19.518,56.167,37.598,112.806,55.496,169.503c1.54,4.877,3.049,9.764,4.605,14.635c1.213,3.797,1.64,7.684,1.055,11.608
			c-0.774,5.195-3.348,9.433-7.357,12.815c-11.209,9.452-29.75,8.386-39.769-2.301c-3.13-3.339-5.068-7.325-6.434-11.653
			c-6.875-21.795-13.694-43.608-20.698-65.362c-8.081-25.102-16.334-50.148-24.518-75.217c-0.267-0.813-0.602-1.605-0.969-2.577
			c-18.016,9.711-34.16,21.601-49.29,35.173c2.299,0.028,3.177,1.503,3.841,3.183c0.441,1.113,0.898,2.234,1.186,3.392
			c1.013,4.074,2.847,7.765,4.861,11.429c5.97,10.856,11.82,21.778,17.659,32.706c1.66,3.107,2.972,6.373,3.531,9.894
			c1.324,8.323-1.038,15.562-6.755,21.613c-6.375,6.75-14.238,10.185-23.634,9.526c-6.967-0.488-12.451-3.767-16.576-9.34
			c-0.9-1.216-1.687-2.53-2.402-3.866c-5.549-10.356-11.043-20.743-16.604-31.094c-4.353-8.103-8.632-16.237-11.964-24.828
			c-2.99-7.709-5.232-15.591-5.708-23.918c-0.661-11.604,2.492-22.017,9.78-31.043c2.647-3.28,5.646-6.344,8.82-9.12
			c12.605-11.023,26.052-20.936,40.29-29.762c0.54-0.335,1.065-0.695,1.685-1.101c-0.147-2.288-0.343-4.584-0.433-6.884
			c-0.181-4.633-0.244-9.271-0.467-13.902c-0.285-5.96-2.447-18.563-4.113-24.387c-0.709,0.391-1.377,0.727-2.013,1.115
			c-8.898,5.431-18.427,9.208-28.735,10.92c-7.384,1.227-14.786,1.472-22.209,0.347c-0.382-0.058-0.775-0.045-1.384-0.076
			c-0.685,3.479-1.371,6.908-2.032,10.342c-3.91,20.324-7.811,40.649-11.721,60.975c-3.623,18.832-7.255,37.664-10.88,56.497
			c-2.417,12.555-4.824,25.112-7.245,37.666c-0.384,1.991-1.521,2.778-3.583,2.554c-2.773-0.303-4.695-2.217-7.12-3.512
			c0.626-3.37,1.205-6.582,1.821-9.787c5.404-28.093,10.812-56.185,16.225-84.276c4.717-24.482,9.434-48.964,14.178-73.44
			c0.289-1.489,0.256-2.647-0.894-3.921c-3.033-3.357-4.56-7.461-5.152-11.923c-0.073-0.547-0.148-1.093-0.26-1.921
			c-5.333-0.322-10.635-0.642-16.203-0.977c0.177-3.531,0.344-6.858,0.522-10.405c5.933-0.257,11.706,0.717,17.525,0.576
			c0.284-0.487,0.528-0.891,0.757-1.302c4.082-7.329,10.431-10.287,18.618-9.519c6.542,0.613,12.93,0.18,19.115-2.206
			c6.718-2.591,12.216-6.867,17.053-12.116c0.899-0.975,0.623-1.852,0.378-2.856c-1.498-6.131-3.097-12.24-4.455-18.401
			c-1.815-8.242-1.494-16.386,1.941-24.213c4.31-9.821,11.791-16.417,21.578-20.396c11.037-4.488,22.229-4.96,33.398-0.383
			c6.634,2.718,11.868,7.179,15.707,13.233c0.745,1.177,1.619,2.109,2.789,2.881c9.104,6.009,17.365,13.08,25.525,20.285
			c9.231,8.152,18.38,16.407,27.831,24.299c9.369,7.823,19.635,14.321,31.039,18.859c2.375,0.944,4.813,1.729,7.219,2.594
			c5.197,1.87,9.219,5.101,11.481,10.227c0.603,1.365,0.819,2.899,1.23,4.351c0.124,0.438,0.306,0.86,0.461,1.29
			C481.747,241.6,481.747,243.36,481.747,245.12z"/>
		<path fill-rule="evenodd" clip-rule="evenodd" d="M292.627,32c1.63,0.321,3.267,0.615,4.89,0.968
			c14.278,3.107,24.84,10.908,30.81,24.471c0.514,1.166,0.878,2.399,1.283,3.61c0.146,0.438,0.213,0.904,0.366,1.577
			c-28.379,7.356-56.663,14.688-85.155,22.074c-0.223-0.599-0.509-1.145-0.628-1.725c-2.171-10.62-0.27-20.551,5.513-29.631
			c7.629-11.982,18.782-18.63,32.708-20.83c0.694-0.109,1.369-0.339,2.053-0.514C287.187,32,289.907,32,292.627,32z"/>
		<path fill-rule="evenodd" clip-rule="evenodd" d="M336.867,88.088c6.047,22.257-7.123,47.714-32.622,53.279
			c-26.04,5.684-47.239-12.677-51.117-31.541C280.99,102.594,308.864,95.358,336.867,88.088z"/>
		<path fill-rule="evenodd" clip-rule="evenodd" d="M219.399,110.635c0.744-0.652,1.317-1.19,1.927-1.684
			c7.393-5.984,14.774-11.985,22.211-17.914c0.96-0.766,2.167-1.37,3.355-1.68c28.439-7.4,56.888-14.757,85.346-22.083
			c1.047-0.269,2.241-0.369,3.29-0.163c9.404,1.845,18.79,3.776,28.181,5.687c0.23,0.047,0.448,0.149,0.752,0.252
			c0.324,1.262-0.518,1.94-1.395,2.44c-0.818,0.466-1.754,0.771-2.674,1.009c-45.223,11.706-90.45,23.4-135.68,35.08
			C222.967,112.031,221.135,112.648,219.399,110.635z"/>
	</g>
</g>
<g id="Layer_4">
	<text transform="matrix(1 0 0 1 -629.3706 172.1819)" font-family="'Lato-Bold'" font-size="152.6106">Hoży</text>
	<text transform="matrix(1 0 0 1 -492.8784 302.8333)" font-family="'Lato-Bold'" font-size="109.2592">Seniorzy</text>
</g>
</svg>
