<?xml version="1.0" encoding="iso-8859-1"?>
<!-- Generator: Adobe Illustrator 16.0.0, SVG Export Plug-In . SVG Version: 6.00 Build 0)  -->
<!DOCTYPE svg PUBLIC "-//W3C//DTD SVG 1.1//EN" "http://www.w3.org/Graphics/SVG/1.1/DTD/svg11.dtd">
<svg xmlns="http://www.w3.org/2000/svg" xmlns:xlink="http://www.w3.org/1999/xlink" version="1.1" id="Capa_1" x="0px" y="0px" width="512px" height="512px" viewBox="0 0 122.692 122.692" style="enable-background:new 0 0 122.692 122.692;" xml:space="preserve">
<g>
	<g>
		<path d="M86.777,77.08c-0.974-4.99-6.367-4.908-14.547-4.605v-4.66h0.003l0.043-18.365c0-0.114-0.02-0.223-0.023-0.335    l0.028-0.014c6.051-2.926,14.12-8.167,14.343-19.842c0.163-8.608-7.236-14.843-13.195-19.862    c-1.727-1.455-4.896-4.126-5.441-5.179C67.805,1.84,65.831,0,63.429,0c-0.784,0-1.545,0.201-2.227,0.587    C60.517,0.201,59.758,0,58.973,0c-2.4,0-4.375,1.84-4.556,4.218c-0.545,1.052-3.716,3.723-5.454,5.188    c-5.947,5.009-13.347,11.244-13.184,19.852C36.005,41.017,42.5,45.08,49.2,48.26l0.84,0.303c-0.033,0.291-0.059,0.583-0.059,0.885    v16.614h-0.014v7.367c0,1.135,0.221,2.195,0.607,3.17c-0.031,0.22-0.05,0.441-0.05,0.668l0.003,40.436    c0,2.755,2.233,4.99,4.99,4.989c2.756,0,4.989-2.234,4.989-4.99v-16.894c0.063,0.07,0.12,0.142,0.189,0.209    c0.974,0.972,2.25,1.457,3.524,1.457c1.277,0,2.559-0.488,3.53-1.463c0.045-0.045,4.581-4.59,9.021-9.258    C86.595,81.43,87.34,79.965,86.777,77.08z M44.915,29.083c-0.081-4.251,5.474-8.929,9.936-12.688    c2.433-2.049,4.746-3.998,6.351-5.999c1.604,2,3.917,3.95,6.357,6.006c4.459,3.757,10.011,8.433,9.929,12.681    c-0.134,6.99-2.956,8.55-9.896,11.708l-0.526,0.241c0,0-2.156-0.79-3.226-1.052l-2.713,2.731l-2.631-2.762    c-0.008,0.003-0.019,0.003-0.027,0.005c-1.026,0.245-2.035,0.635-2.986,1.142C48.116,37.756,45.055,36.307,44.915,29.083z     M60.69,93.961c-0.066,0.064-0.125,0.135-0.185,0.203V83.002c0.197,0.01,0.394,0.024,0.595,0.024c0.168,0,0.336-0.015,0.503-0.021    c0.248,0.018,0.499,0.025,0.755,0.006c3.064-0.229,6.442-0.42,9.442-0.533C68.582,85.93,64.459,90.184,60.69,93.961z" fill="#ffffff"/>
		<circle cx="61.128" cy="28.457" r="10.89" fill="#ffffff"/>
	</g>
</g>
<g>
</g>
<g>
</g>
<g>
</g>
<g>
</g>
<g>
</g>
<g>
</g>
<g>
</g>
<g>
</g>
<g>
</g>
<g>
</g>
<g>
</g>
<g>
</g>
<g>
</g>
<g>
</g>
<g>
</g>
</svg>
