<?xml version="1.0" encoding="utf-8"?>
<!-- Generator: Adobe Illustrator 16.0.0, SVG Export Plug-In . SVG Version: 6.00 Build 0)  -->
<!DOCTYPE svg PUBLIC "-//W3C//DTD SVG 1.1//EN" "http://www.w3.org/Graphics/SVG/1.1/DTD/svg11.dtd">
<svg version="1.1" id="Capa_1" xmlns="http://www.w3.org/2000/svg" xmlns:xlink="http://www.w3.org/1999/xlink" x="0px" y="0px"
	 width="512px" height="512px" viewBox="0 0 512 512" enable-background="new 0 0 512 512" xml:space="preserve">
<g>
	<g>
		<path fill="#FFFFFF" d="M255.045,86.539c23.715,0,42.961-19.246,42.961-42.993c0-23.731-19.246-42.961-42.961-42.961
			c-23.748,0-42.993,19.229-42.993,42.961C212.052,67.293,231.297,86.539,255.045,86.539z"/>
		<path fill="#FFFFFF" d="M347.647,143.479c0,0,2.422-48-48.227-48h-87.807c-48.845,0-48.487,44.326-48.52,48l0.016,136.213
			c0.797,7.33,8.03,15.718,17.051,15.718c8.957,0,15.539-8.111,16.336-15.458l15.247,216.899
			c1.138,11.054,8.924,15.166,18.529,15.166c9.574,0,17.344-4.112,18.498-15.166h13.523c1.171,11.054,8.957,15.166,18.481,15.166
			c9.623,0,17.393-4.112,18.563-15.166l15.702-217.062c0,7.363,7.136,15.652,16.124,15.652c8.973,0,16.142-8.42,16.938-15.75
			L347.647,143.479z"/>
	</g>
</g>
</svg>
