<?xml version="1.0" encoding="utf-8"?>
<!-- Generator: Adobe Illustrator 16.0.0, SVG Export Plug-In . SVG Version: 6.00 Build 0)  -->
<!DOCTYPE svg PUBLIC "-//W3C//DTD SVG 1.1//EN" "http://www.w3.org/Graphics/SVG/1.1/DTD/svg11.dtd">
<svg version="1.1" xmlns="http://www.w3.org/2000/svg" xmlns:xlink="http://www.w3.org/1999/xlink" x="0px" y="0px" width="512px"
	 height="512px" viewBox="0 0 512 512" enable-background="new 0 0 512 512" xml:space="preserve">
<g id="Capa_1">
</g>
<g id="Layer_2">
	<g>
		<path fill="#FFFFFF" d="M216.075,108.718c-12.59,0-23.375,4.655-32.479,13.644c-9.136,9.396-13.831,20.323-13.831,32.492v112.505
			c0,4.216,1.442,8.03,4.695,11.116c3.013,3.044,6.762,4.421,11.011,4.421c4.887,0,8.639-1.377,11.652-4.421
			c2.613-3.086,3.989-6.894,3.989-11.116V166.758h8.135v278.522c0,5.36,2.342,10.32,6.795,14.135
			c4.184,4.218,9.073,6.027,14.697,6.027c6.092,0,10.98-1.804,14.963-6.027c4.217-3.814,6.129-8.767,6.129-14.135V283.826h9.105
			v161.454c0,5.36,2.107,10.32,6.064,14.135c3.983,4.218,9.136,6.027,15.436,6.027c5.352,0,10.049-1.804,14.264-6.027
			c3.95-3.814,5.762-8.767,5.762-14.135V166.758h8.502v100.601c0,4.216,1.34,8.03,4.152,11.116
			c3.349,3.044,7.229,4.421,11.451,4.421c4.952,0,8.703-1.377,11.517-4.421c2.541-3.086,4.151-6.894,4.151-11.116V154.86
			c0-12.137-4.424-23.103-13.56-32.46c-8.911-9.027-19.588-13.643-32.687-13.643h-79.916V108.718z M256.249,99.466
			c9.817,0,18.481-3.233,25.451-9.979c6.965-6.931,10.514-15.499,10.514-25.819c0-9.842-3.582-18.279-10.546-25.244
			c-6.996-7.165-15.636-10.733-25.418-10.733c-10.313,0-18.984,3.569-25.509,10.733c-6.964,6.965-10.242,15.402-10.242,25.244
			c0,10.345,3.278,18.914,10.242,25.819C237.303,96.232,245.974,99.466,256.249,99.466z"/>
	</g>
</g>
</svg>
