<?xml version="1.0" encoding="iso-8859-1"?>
<!-- Generator: Adobe Illustrator 16.0.0, SVG Export Plug-In . SVG Version: 6.00 Build 0)  -->
<!DOCTYPE svg PUBLIC "-//W3C//DTD SVG 1.1//EN" "http://www.w3.org/Graphics/SVG/1.1/DTD/svg11.dtd">
<svg xmlns="http://www.w3.org/2000/svg" xmlns:xlink="http://www.w3.org/1999/xlink" version="1.1" id="Capa_1" x="0px" y="0px" width="512px" height="512px" viewBox="0 0 123.373 123.374" style="enable-background:new 0 0 123.373 123.374;" xml:space="preserve">
<g>
	<g>
		<path d="M99.716,45.181c-11.391,0.099-20.543,9.409-20.444,20.799c0.021,2.374,0.461,4.643,1.218,6.757    c3.149-2.884,9.556-7.656,17.608-7.799h0.229c7.029,0,13.502,3.184,19.242,9.462c0.221,0.241,0.463,0.489,0.705,0.735    c1.455-2.854,2.274-6.085,2.246-9.51C120.419,54.234,111.107,45.082,99.716,45.181z" fill="#ffffff"/>
		<path d="M14.229,79.591c4.32-0.233,7.879-4.754,7.914-4.8c0.113-0.144,8.23-9.651,19.649-9.854h0.229    c7.029,0,13.503,3.184,19.243,9.462c3.292,3.602,6.397,5.365,9.27,5.191c1.135-0.062,2.226-0.444,3.233-0.957    c2.084-2.546,3.526-5.619,4.229-8.593c0,0,0.631-2.179,0.561-4.488c-0.067-2.209-0.603-4.667-0.603-4.667l-0.011-0.061    c-0.369-1.457-0.924-2.927-1.633-4.345c-0.037-0.271-0.084-0.538-0.146-0.802c-0.005-2.158,0.404-10.451,6.514-16.226    c6.24-5.898,16.781-7.723,31.323-5.42c4.371,0.688,8.47-2.291,9.16-6.657c0.692-4.367-2.288-8.469-6.655-9.161    c-42.429-6.718-52.834,17.887-55.317,28.429c0,0-54.395-3.414-56.229,27.755C7.205,76.855,10.688,79.815,14.229,79.591z" fill="#ffffff"/>
		<path d="M114.378,78.997c-5.114-5.597-10.743-8.328-16.721-8.277c-9.695,0.171-16.884,8.492-16.905,8.521    c-0.042,0.059-4.415,5.799-10.521,6.129c-3.996,0.221-8.095-1.93-12.156-6.371c-5.116-5.597-10.731-8.328-16.721-8.277    c-9.695,0.171-16.813,8.414-16.836,8.442c-0.022,0.026-4.485,5.876-10.591,6.206c-3.987,0.221-8.096-1.93-12.157-6.371    c-0.558-0.609-1.125-1.17-1.693-1.713c-0.03,2.71-0.06,5.418-0.076,8.126c4.275,3.833,8.749,5.797,13.351,5.797    c0.296,0,0.593-0.01,0.889-0.024c8.428-0.455,14.006-7.327,14.806-8.37c0.406-0.455,5.644-6.171,12.448-6.271    c0.058,0,0.116-0.002,0.174-0.002c4.163,0,8.236,2.147,12.109,6.387c5.026,5.497,10.364,8.28,15.879,8.28    c0.296,0,0.593-0.01,0.89-0.024c8.427-0.455,14.005-7.327,14.806-8.37c0.405-0.455,5.645-6.171,12.447-6.271    c0.059,0,0.116-0.002,0.176-0.002c4.16,0,8.233,2.147,12.106,6.387c4.235,4.633,8.694,7.312,13.292,8.048v-5.933    C120.393,84.292,117.373,82.271,114.378,78.997z" fill="#ffffff"/>
		<path d="M114.378,94.091c-5.114-5.596-10.743-8.328-16.721-8.277c-9.695,0.171-16.884,8.492-16.905,8.521    c-0.042,0.058-4.415,5.798-10.521,6.128c-3.996,0.222-8.095-1.928-12.156-6.371c-5.116-5.596-10.731-8.328-16.721-8.277    c-9.695,0.171-16.813,8.414-16.836,8.441c-0.022,0.027-4.485,5.877-10.591,6.207c-3.987,0.222-8.096-1.928-12.157-6.371    c-0.574-0.629-1.159-1.209-1.746-1.766c0.038,2.767,0.105,5.554,0.174,8.35c4.215,3.718,8.623,5.627,13.154,5.627    c0.296,0,0.593-0.008,0.889-0.025c8.428-0.455,14.006-7.327,14.806-8.368c0.406-0.455,5.644-6.174,12.448-6.271    c0.058,0,0.116-0.002,0.174-0.002c4.163,0,8.236,2.148,12.109,6.387c5.026,5.498,10.364,8.281,15.879,8.281    c0.296,0,0.593-0.008,0.89-0.025c8.427-0.455,14.005-7.327,14.806-8.368c0.405-0.455,5.645-6.174,12.447-6.271    c0.059,0,0.116-0.002,0.176-0.002c4.16,0,8.233,2.148,12.106,6.387c4.235,4.633,8.694,7.313,13.292,8.049v-5.932    C120.393,99.387,117.373,97.368,114.378,94.091z" fill="#ffffff"/>
	</g>
</g>
<g>
</g>
<g>
</g>
<g>
</g>
<g>
</g>
<g>
</g>
<g>
</g>
<g>
</g>
<g>
</g>
<g>
</g>
<g>
</g>
<g>
</g>
<g>
</g>
<g>
</g>
<g>
</g>
<g>
</g>
</svg>
