<?xml version="1.0" encoding="iso-8859-1"?>
<!-- Generator: Adobe Illustrator 16.0.0, SVG Export Plug-In . SVG Version: 6.00 Build 0)  -->
<!DOCTYPE svg PUBLIC "-//W3C//DTD SVG 1.1//EN" "http://www.w3.org/Graphics/SVG/1.1/DTD/svg11.dtd">
<svg xmlns="http://www.w3.org/2000/svg" xmlns:xlink="http://www.w3.org/1999/xlink" version="1.1" id="Capa_1" x="0px" y="0px" width="512px" height="512px" viewBox="0 0 124.334 124.334" style="enable-background:new 0 0 124.334 124.334;" xml:space="preserve">
<g>
	<g>
		<circle cx="32.601" cy="32.412" r="11.036" fill="#ffffff"/>
		<path d="M94.124,78.806h-5.27V63.454H75.363v15.352h-2.089V63.454h-13.49v23.675h13.49v-3.712h2.089v3.712h13.491v-3.712h2.319    l-1.509,6.085H64.864c-0.188,0-0.37,0.029-0.547,0.072h-1.08v0.6c-0.42,0.417-0.679,0.996-0.679,1.635    c0,0.638,0.259,1.216,0.679,1.635v5.158h15.841v-4.486h9.442l-1.507,6.076H58.819l-4.751-26.705    c0.326-0.507,0.561-1.082,0.647-1.718c0.319-2.346-1.32-4.505-3.665-4.826c-6.715-0.918-10.282-2.123-11.931-4.028    c-1.629-1.884-2.225-5.386-3.012-10.929c-0.027-0.201-0.073-0.394-0.128-0.582c-0.365-3.39-3.041-6.178-5.836-7.534    c0,0-1.063-0.584-2.279-0.816c-1.16-0.222-2.507-0.229-2.507-0.229l-0.034-0.002c-3.819,0.111-8.318,2.241-9.27,6.679    l-5.104,23.82c-0.682,3.18,0.74,6.028,3.042,7.991l-0.022,36.76c-0.002,3.226,2.612,5.844,5.839,5.845h0.004    c3.226,0,5.841-2.613,5.843-5.839l0.021-34.781c2.415-0.961,4.456-2.825,5.078-5.731l1.933-9.019    c3.055,3.567,8.091,5.622,17.038,6.862l4.888,27.47l1.899,11.559c0.087,0.536,0.359,1,0.74,1.341    c-1.544,0.708-2.619,2.264-2.619,4.074c0,2.476,2.006,4.481,4.482,4.481c2.475,0,4.482-2.006,4.482-4.481    c0-1.406-0.649-2.661-1.662-3.483h21.233c-1.014,0.822-1.662,2.077-1.662,3.483c0,2.476,2.007,4.481,4.482,4.481    c2.475,0,4.481-2.006,4.481-4.481c0-1.719-0.969-3.209-2.388-3.961c0.553-0.422,0.914-1.079,0.914-1.828    c0-1.274-1.032-2.308-2.308-2.308H60.746l-1.143-6.952h29.216c1.06,0,1.982-0.723,2.24-1.751l5.303-21.388    c0.168-0.688,0.015-1.417-0.423-1.976C95.503,79.13,94.833,78.806,94.124,78.806z" fill="#ffffff"/>
		<rect x="59.32" y="47.1" width="23.676" height="13.491" fill="#ffffff"/>
		<rect x="85.314" y="36.915" width="13.491" height="23.675" fill="#ffffff"/>
		<path d="M61.342,44.237h20.638c0.861,0,1.56-0.698,1.56-1.558V24.242c0-0.861-0.697-1.559-1.56-1.559H61.342    c-0.86,0-1.558,0.697-1.558,1.559V42.68C59.784,43.539,60.481,44.237,61.342,44.237z" fill="#ffffff"/>
		<path d="M112.563,16.633L92.793,8.912c-0.801-0.312-1.705,0.083-2.019,0.884l-6.607,16.92c-0.313,0.803,0.083,1.706,0.884,2.02    l19.771,7.722c0.802,0.313,1.705-0.083,2.02-0.884l6.608-16.921C113.763,17.851,113.366,16.946,112.563,16.633z" fill="#ffffff"/>
		<path d="M65.702,20.427c0.186,0.59,1.001,0.858,1.821,0.602l20.252-6.354c0.82-0.257,1.336-0.943,1.151-1.532L85.023,0.698    c-0.185-0.589-1.001-0.858-1.821-0.601L62.948,6.452c-0.818,0.257-1.334,0.944-1.149,1.533L65.702,20.427z" fill="#ffffff"/>
	</g>
</g>
<g>
</g>
<g>
</g>
<g>
</g>
<g>
</g>
<g>
</g>
<g>
</g>
<g>
</g>
<g>
</g>
<g>
</g>
<g>
</g>
<g>
</g>
<g>
</g>
<g>
</g>
<g>
</g>
<g>
</g>
</svg>
